<?xml version="1.0" encoding="UTF-8" standalone="no"?>
<!DOCTYPE svg PUBLIC "-//W3C//DTD SVG 1.1//EN" "http://www.w3.org/Graphics/SVG/1.1/DTD/svg11.dtd">
<svg width="100%" height="100%" viewBox="0 0 446 217" version="1.1" xmlns="http://www.w3.org/2000/svg" xmlns:xlink="http://www.w3.org/1999/xlink" xml:space="preserve" style="fill-rule:evenodd;clip-rule:evenodd;stroke-linejoin:round;stroke-miterlimit:1.41421;">
    <g transform="matrix(1,0,0,1,-176.494,-473.406)">
        <g transform="matrix(0.930567,0.130623,-0.130623,0.930567,72.6869,36.1724)">
            <g transform="matrix(1,0,0,1,-114.955,23.3818)">
                <path d="M434.367,553.619L338.458,553.619C338.458,553.619 333.554,548.575 331.018,540.161C322.389,511.537 319.281,450.724 318.469,430.733C318.401,429.03 319.03,427.372 320.211,426.143C321.392,424.913 323.023,424.218 324.728,424.218C347.038,424.214 420.558,424.214 446.036,424.214C450.939,424.213 454.94,428.136 455.037,433.038C455.383,455.421 455.064,514.508 442.995,541.043C438.837,550.185 434.367,553.619 434.367,553.619Z" style="fill:rgb(148,73,32);"/>
            </g>
            <g transform="matrix(1,0,0,-0.625978,-114.811,920.023)">
                <path d="M434.367,553.619L338.458,553.619C338.458,553.619 326.629,477.94 321.063,442.331C320.382,437.975 320.996,433.36 322.726,429.821C324.456,426.282 327.11,424.214 329.921,424.214C356.777,424.214 422.393,424.214 446.098,424.214C448.193,424.214 450.171,425.758 451.459,428.398C452.746,431.039 453.199,434.481 452.686,437.726C447.444,470.89 434.367,553.619 434.367,553.619Z" style="fill:rgb(148,73,32);"/>
            </g>
            <g transform="matrix(1,0,0,1,3.20045,-4.30408)">
                <ellipse cx="268.261" cy="456.959" rx="68.457" ry="18.561" style="fill:rgb(255,237,207);"/>
            </g>
            <g transform="matrix(1.01956,0,0,1,-5.21364,-40.8777)">
                <path d="M205.204,509.742C211.734,518.146 239.264,524.463 272.192,524.463C304.599,524.463 331.777,518.345 338.854,510.139C339.817,511.378 340.323,512.662 340.323,513.978C340.323,524.222 309.648,532.539 271.866,532.539C234.084,532.539 203.409,524.222 203.409,513.978C203.409,512.521 204.03,511.102 205.204,509.742Z"/>
            </g>
            <g transform="matrix(0.0698018,0.745242,-0.606173,0.0567761,517.077,300.665)">
                <path d="M205.204,509.742C206.84,511.848 239.738,514.56 272.553,514.637C304.859,514.713 337.089,512.186 338.854,510.139C339.817,511.378 340.323,512.662 340.323,513.978C340.323,519.194 308.919,521.953 274.079,521.858C240.485,521.767 203.409,519.007 203.409,513.978C203.409,512.521 204.03,511.102 205.204,509.742Z"/>
            </g>
            <g transform="matrix(-0.0347152,0.747699,0.577131,0.0267958,33.5689,314.305)">
                <path d="M205.204,509.742C206.84,511.848 239.738,514.56 272.553,514.637C304.859,514.713 337.089,512.186 338.854,510.139C339.817,511.378 340.323,512.662 340.323,513.978C340.323,519.194 308.919,521.953 274.079,521.858C240.485,521.767 203.409,519.007 203.409,513.978C203.409,512.521 204.03,511.102 205.204,509.742Z"/>
            </g>
            <g transform="matrix(0.0178244,0.767952,-0.608662,0.0141272,555.13,320.547)">
                <path d="M205.204,509.742C206.84,511.848 239.783,513.96 272.598,514.037C304.904,514.113 337.089,512.186 338.854,510.139C339.817,511.378 340.323,512.662 340.323,513.978C340.323,519.194 308.202,520.733 273.362,520.638C239.767,520.547 203.409,519.007 203.409,513.978C203.409,512.521 204.03,511.102 205.204,509.742Z"/>
            </g>
            <g transform="matrix(0.0156262,0.767999,0.619086,-0.0125963,-24.1635,335.446)">
                <path d="M205.204,509.742C206.84,511.848 239.783,513.96 272.598,514.037C304.904,514.113 337.089,512.186 338.854,510.139C339.817,511.378 340.323,512.662 340.323,513.978C340.323,519.194 308.202,520.733 273.362,520.638C239.767,520.547 203.409,519.007 203.409,513.978C203.409,512.521 204.03,511.102 205.204,509.742Z"/>
            </g>
            <g transform="matrix(0.0199467,0.767899,-0.717713,0.0186431,635.746,319.657)">
                <path d="M205.204,509.742C206.84,511.848 221.535,511.21 273.072,512.303C321.893,513.339 346.391,512.464 338.854,510.139C339.817,511.378 340.323,512.662 340.323,513.978C340.323,519.194 309.205,518.1 274.365,518.005C240.771,517.914 203.409,519.007 203.409,513.978C203.409,512.521 204.03,511.102 205.204,509.742Z"/>
            </g>
            <g transform="matrix(0.766541,0,0,1,63.2726,62.8206)">
                <path d="M205.204,509.742C211.734,518.146 239.264,524.463 272.192,524.463C304.599,524.463 331.777,518.345 338.854,510.139C339.817,511.378 340.323,512.662 340.323,513.978C340.323,524.222 309.648,532.539 271.866,532.539C234.084,532.539 203.409,524.222 203.409,513.978C203.409,512.521 204.03,511.102 205.204,509.742Z"/>
            </g>
        </g>
        <g transform="matrix(0.671571,-0.0083747,0.0083747,0.671571,214.122,245.107)">
            <g transform="matrix(1,0,0,1,-114.955,23.3818)">
                <path d="M434.367,553.619L338.458,553.619C338.458,553.619 333.554,548.575 331.018,540.161C322.741,512.703 319.543,455.626 318.58,433.375C318.473,430.986 319.348,428.657 321.001,426.929C322.653,425.2 324.941,424.223 327.332,424.223C351.158,424.214 415.386,424.214 442.489,424.214C449.382,424.214 454.995,429.756 455.082,436.649C455.322,461.229 454.463,515.83 442.995,541.043C438.837,550.185 434.367,553.619 434.367,553.619Z" style="fill:rgb(148,73,32);"/>
            </g>
            <g transform="matrix(1,0,0,-0.625978,-114.811,920.023)">
                <path d="M434.367,553.619L338.458,553.619C338.458,553.619 328.082,487.237 322.194,449.562C321.241,443.467 322.099,437.01 324.519,432.059C326.94,427.108 330.653,424.214 334.586,424.214C362.327,424.214 417.986,424.214 442.616,424.214C445.547,424.214 448.315,426.374 450.116,430.069C451.917,433.763 452.551,438.579 451.833,443.119C446.155,479.043 434.367,553.619 434.367,553.619Z" style="fill:rgb(148,73,32);"/>
            </g>
            <g transform="matrix(1,0,0,1,3.20045,-4.30408)">
                <ellipse cx="268.261" cy="456.959" rx="68.457" ry="18.561" style="fill:rgb(255,237,207);"/>
            </g>
            <g transform="matrix(1.01956,0,0,1,-5.21364,-40.8777)">
                <path d="M205.204,509.742C211.734,518.146 239.264,524.463 272.192,524.463C304.599,524.463 331.777,518.345 338.854,510.139C339.817,511.378 340.323,512.662 340.323,513.978C340.323,524.222 309.648,532.539 271.866,532.539C234.084,532.539 203.409,524.222 203.409,513.978C203.409,512.521 204.03,511.102 205.204,509.742Z"/>
            </g>
            <g transform="matrix(0.0698018,0.745242,-0.606173,0.0567761,517.077,300.665)">
                <path d="M205.204,509.742C206.84,511.848 239.738,514.56 272.553,514.637C304.859,514.713 337.089,512.186 338.854,510.139C339.817,511.378 340.323,512.662 340.323,513.978C340.323,519.194 308.919,521.953 274.079,521.858C240.485,521.767 203.409,519.007 203.409,513.978C203.409,512.521 204.03,511.102 205.204,509.742Z"/>
            </g>
            <g transform="matrix(-0.0347152,0.747699,0.577131,0.0267958,33.5689,314.305)">
                <path d="M205.204,509.742C206.84,511.848 239.738,514.56 272.553,514.637C304.859,514.713 337.089,512.186 338.854,510.139C339.817,511.378 340.323,512.662 340.323,513.978C340.323,519.194 308.919,521.953 274.079,521.858C240.485,521.767 203.409,519.007 203.409,513.978C203.409,512.521 204.03,511.102 205.204,509.742Z"/>
            </g>
            <g transform="matrix(0.0178244,0.767952,-0.608662,0.0141272,555.13,320.547)">
                <path d="M205.204,509.742C206.84,511.848 239.783,513.96 272.598,514.037C304.904,514.113 337.089,512.186 338.854,510.139C339.817,511.378 340.323,512.662 340.323,513.978C340.323,519.194 308.202,520.733 273.362,520.638C239.767,520.547 203.409,519.007 203.409,513.978C203.409,512.521 204.03,511.102 205.204,509.742Z"/>
            </g>
            <g transform="matrix(0.0156262,0.767999,0.619086,-0.0125963,-24.1635,335.446)">
                <path d="M205.204,509.742C206.84,511.848 239.783,513.96 272.598,514.037C304.904,514.113 337.089,512.186 338.854,510.139C339.817,511.378 340.323,512.662 340.323,513.978C340.323,519.194 308.202,520.733 273.362,520.638C239.767,520.547 203.409,519.007 203.409,513.978C203.409,512.521 204.03,511.102 205.204,509.742Z"/>
            </g>
            <g transform="matrix(0.0199467,0.767899,-0.717713,0.0186431,635.746,319.657)">
                <path d="M205.204,509.742C206.84,511.848 221.535,511.21 273.072,512.303C321.893,513.339 346.391,512.464 338.854,510.139C339.817,511.378 340.323,512.662 340.323,513.978C340.323,519.194 309.205,518.1 274.365,518.005C240.771,517.914 203.409,519.007 203.409,513.978C203.409,512.521 204.03,511.102 205.204,509.742Z"/>
            </g>
            <g transform="matrix(0.766541,0,0,1,63.2726,62.8206)">
                <path d="M205.204,509.742C211.734,518.146 239.264,524.463 272.192,524.463C304.599,524.463 331.777,518.345 338.854,510.139C339.817,511.378 340.323,512.662 340.323,513.978C340.323,524.222 309.648,532.539 271.866,532.539C234.084,532.539 203.409,524.222 203.409,513.978C203.409,512.521 204.03,511.102 205.204,509.742Z"/>
            </g>
        </g>
        <g transform="matrix(0.930567,0.130623,-0.130623,0.930567,72.6869,36.1724)">
            <g transform="matrix(1,0,0,1,-114.955,23.3818)">
                <path d="M434.367,553.619L338.458,553.619C338.458,553.619 333.554,548.575 331.018,540.161C322.389,511.537 319.281,450.724 318.469,430.733C318.401,429.03 319.03,427.372 320.211,426.143C321.392,424.913 323.023,424.218 324.728,424.218C347.038,424.214 420.558,424.214 446.036,424.214C450.939,424.213 454.94,428.136 455.037,433.038C455.383,455.421 455.064,514.508 442.995,541.043C438.837,550.185 434.367,553.619 434.367,553.619Z" style="fill:rgb(148,73,32);"/>
            </g>
            <g transform="matrix(1,0,0,-0.625978,-114.811,920.023)">
                <path d="M434.367,553.619L338.458,553.619C338.458,553.619 326.629,477.94 321.063,442.331C320.382,437.975 320.996,433.36 322.726,429.821C324.456,426.282 327.11,424.214 329.921,424.214C356.777,424.214 422.393,424.214 446.098,424.214C448.193,424.214 450.171,425.758 451.459,428.398C452.746,431.039 453.199,434.481 452.686,437.726C447.444,470.89 434.367,553.619 434.367,553.619Z" style="fill:rgb(148,73,32);"/>
            </g>
            <g transform="matrix(1,0,0,1,3.20045,-4.30408)">
                <ellipse cx="268.261" cy="456.959" rx="68.457" ry="18.561" style="fill:rgb(255,237,207);"/>
            </g>
            <g transform="matrix(1.01956,0,0,1,-5.21364,-40.8777)">
                <path d="M205.204,509.742C211.734,518.146 239.264,524.463 272.192,524.463C304.599,524.463 331.777,518.345 338.854,510.139C339.817,511.378 340.323,512.662 340.323,513.978C340.323,524.222 309.648,532.539 271.866,532.539C234.084,532.539 203.409,524.222 203.409,513.978C203.409,512.521 204.03,511.102 205.204,509.742Z"/>
            </g>
            <g transform="matrix(0.0698018,0.745242,-0.606173,0.0567761,517.077,300.665)">
                <path d="M205.204,509.742C206.84,511.848 239.738,514.56 272.553,514.637C304.859,514.713 337.089,512.186 338.854,510.139C339.817,511.378 340.323,512.662 340.323,513.978C340.323,519.194 308.919,521.953 274.079,521.858C240.485,521.767 203.409,519.007 203.409,513.978C203.409,512.521 204.03,511.102 205.204,509.742Z"/>
            </g>
            <g transform="matrix(-0.0347152,0.747699,0.577131,0.0267958,33.5689,314.305)">
                <path d="M205.204,509.742C206.84,511.848 239.738,514.56 272.553,514.637C304.859,514.713 337.089,512.186 338.854,510.139C339.817,511.378 340.323,512.662 340.323,513.978C340.323,519.194 308.919,521.953 274.079,521.858C240.485,521.767 203.409,519.007 203.409,513.978C203.409,512.521 204.03,511.102 205.204,509.742Z"/>
            </g>
            <g transform="matrix(0.0178244,0.767952,-0.608662,0.0141272,555.13,320.547)">
                <path d="M205.204,509.742C206.84,511.848 239.783,513.96 272.598,514.037C304.904,514.113 337.089,512.186 338.854,510.139C339.817,511.378 340.323,512.662 340.323,513.978C340.323,519.194 308.202,520.733 273.362,520.638C239.767,520.547 203.409,519.007 203.409,513.978C203.409,512.521 204.03,511.102 205.204,509.742Z"/>
            </g>
            <g transform="matrix(0.0156262,0.767999,0.619086,-0.0125963,-24.1635,335.446)">
                <path d="M205.204,509.742C206.84,511.848 239.783,513.96 272.598,514.037C304.904,514.113 337.089,512.186 338.854,510.139C339.817,511.378 340.323,512.662 340.323,513.978C340.323,519.194 308.202,520.733 273.362,520.638C239.767,520.547 203.409,519.007 203.409,513.978C203.409,512.521 204.03,511.102 205.204,509.742Z"/>
            </g>
            <g transform="matrix(0.0199467,0.767899,-0.717713,0.0186431,635.746,319.657)">
                <path d="M205.204,509.742C206.84,511.848 221.535,511.21 273.072,512.303C321.893,513.339 346.391,512.464 338.854,510.139C339.817,511.378 340.323,512.662 340.323,513.978C340.323,519.194 309.205,518.1 274.365,518.005C240.771,517.914 203.409,519.007 203.409,513.978C203.409,512.521 204.03,511.102 205.204,509.742Z"/>
            </g>
            <g transform="matrix(0.766541,0,0,1,63.2726,62.8206)">
                <path d="M205.204,509.742C211.734,518.146 239.264,524.463 272.192,524.463C304.599,524.463 331.777,518.345 338.854,510.139C339.817,511.378 340.323,512.662 340.323,513.978C340.323,524.222 309.648,532.539 271.866,532.539C234.084,532.539 203.409,524.222 203.409,513.978C203.409,512.521 204.03,511.102 205.204,509.742Z"/>
            </g>
        </g>
        <g transform="matrix(0.890037,-0.155052,0.155052,0.890037,217.997,137.661)">
            <g transform="matrix(1,0,0,1,-114.955,23.3818)">
                <path d="M434.367,553.619L338.458,553.619C338.458,553.619 333.554,548.575 331.018,540.161C322.427,511.662 319.308,451.255 318.48,430.998C318.408,429.225 319.062,427.501 320.29,426.221C321.519,424.942 323.216,424.219 324.989,424.219C347.503,424.214 419.981,424.214 445.681,424.214C450.783,424.213 454.946,428.298 455.042,433.399C455.379,456.05 455,514.65 442.995,541.043C438.837,550.185 434.367,553.619 434.367,553.619Z" style="fill:rgb(148,73,32);"/>
            </g>
            <g transform="matrix(1,0,0,-0.625978,-114.811,920.023)">
                <path d="M434.367,553.619L338.458,553.619C338.458,553.619 326.788,478.959 321.177,443.058C320.469,438.527 321.106,433.727 322.906,430.046C324.705,426.365 327.466,424.214 330.39,424.214C357.4,424.214 421.893,424.214 445.748,424.214C447.927,424.214 449.985,425.82 451.324,428.566C452.663,431.313 453.134,434.893 452.6,438.268C447.303,471.782 434.367,553.619 434.367,553.619Z" style="fill:rgb(148,73,32);"/>
            </g>
            <g transform="matrix(1,0,0,1,3.20045,-4.30408)">
                <ellipse cx="268.261" cy="456.959" rx="68.457" ry="18.561" style="fill:rgb(255,237,207);"/>
            </g>
            <g transform="matrix(1.01956,0,0,1,-5.21364,-40.8777)">
                <path d="M205.204,509.742C211.734,518.146 239.264,524.463 272.192,524.463C304.599,524.463 331.777,518.345 338.854,510.139C339.817,511.378 340.323,512.662 340.323,513.978C340.323,524.222 309.648,532.539 271.866,532.539C234.084,532.539 203.409,524.222 203.409,513.978C203.409,512.521 204.03,511.102 205.204,509.742Z"/>
            </g>
            <g transform="matrix(0.0698018,0.745242,-0.606173,0.0567761,517.077,300.665)">
                <path d="M205.204,509.742C206.84,511.848 239.738,514.56 272.553,514.637C304.859,514.713 337.089,512.186 338.854,510.139C339.817,511.378 340.323,512.662 340.323,513.978C340.323,519.194 308.919,521.953 274.079,521.858C240.485,521.767 203.409,519.007 203.409,513.978C203.409,512.521 204.03,511.102 205.204,509.742Z"/>
            </g>
            <g transform="matrix(-0.0347152,0.747699,0.577131,0.0267958,33.5689,314.305)">
                <path d="M205.204,509.742C206.84,511.848 239.738,514.56 272.553,514.637C304.859,514.713 337.089,512.186 338.854,510.139C339.817,511.378 340.323,512.662 340.323,513.978C340.323,519.194 308.919,521.953 274.079,521.858C240.485,521.767 203.409,519.007 203.409,513.978C203.409,512.521 204.03,511.102 205.204,509.742Z"/>
            </g>
            <g transform="matrix(0.0178244,0.767952,-0.608662,0.0141272,555.13,320.547)">
                <path d="M205.204,509.742C206.84,511.848 239.783,513.96 272.598,514.037C304.904,514.113 337.089,512.186 338.854,510.139C339.817,511.378 340.323,512.662 340.323,513.978C340.323,519.194 308.202,520.733 273.362,520.638C239.767,520.547 203.409,519.007 203.409,513.978C203.409,512.521 204.03,511.102 205.204,509.742Z"/>
            </g>
            <g transform="matrix(0.0156262,0.767999,0.619086,-0.0125963,-24.1635,335.446)">
                <path d="M205.204,509.742C206.84,511.848 239.783,513.96 272.598,514.037C304.904,514.113 337.089,512.186 338.854,510.139C339.817,511.378 340.323,512.662 340.323,513.978C340.323,519.194 308.202,520.733 273.362,520.638C239.767,520.547 203.409,519.007 203.409,513.978C203.409,512.521 204.03,511.102 205.204,509.742Z"/>
            </g>
            <g transform="matrix(0.0199467,0.767899,-0.717713,0.0186431,635.746,319.657)">
                <path d="M205.204,509.742C206.84,511.848 221.535,511.21 273.072,512.303C321.893,513.339 346.391,512.464 338.854,510.139C339.817,511.378 340.323,512.662 340.323,513.978C340.323,519.194 309.205,518.1 274.365,518.005C240.771,517.914 203.409,519.007 203.409,513.978C203.409,512.521 204.03,511.102 205.204,509.742Z"/>
            </g>
            <g transform="matrix(0.766541,0,0,1,63.2726,62.8206)">
                <path d="M205.204,509.742C211.734,518.146 239.264,524.463 272.192,524.463C304.599,524.463 331.777,518.345 338.854,510.139C339.817,511.378 340.323,512.662 340.323,513.978C340.323,524.222 309.648,532.539 271.866,532.539C234.084,532.539 203.409,524.222 203.409,513.978C203.409,512.521 204.03,511.102 205.204,509.742Z"/>
            </g>
        </g>
    </g>
</svg>
