<?xml version="1.0" encoding="UTF-8" standalone="no"?>
<!DOCTYPE svg PUBLIC "-//W3C//DTD SVG 1.1//EN" "http://www.w3.org/Graphics/SVG/1.1/DTD/svg11.dtd">
<svg width="100%" height="100%" viewBox="0 0 562 267" version="1.1" xmlns="http://www.w3.org/2000/svg" xmlns:xlink="http://www.w3.org/1999/xlink" xml:space="preserve" style="fill-rule:evenodd;clip-rule:evenodd;stroke-linejoin:round;stroke-miterlimit:1.41421;">
    <g transform="matrix(1,0,0,1,-1213.82,-413.438)">
        <g transform="matrix(0.824013,-0.261187,0.261187,0.824013,394.105,441.786)">
            <g transform="matrix(-0.011936,-0.612411,-1.0225,0.0199288,1946.23,713.367)">
                <path d="M434.367,553.619L338.458,553.619C338.458,553.619 324.723,465.745 319.89,434.822C319.465,432.103 320.972,429.403 324.043,427.384C327.113,425.365 331.461,424.214 336.021,424.214C363.805,424.214 416.87,424.214 441.567,424.214C444.963,424.214 448.202,425.071 450.487,426.576C452.772,428.08 453.893,430.092 453.572,432.117C449.131,460.217 434.367,553.619 434.367,553.619Z" style="fill:rgb(148,73,32);"/>
            </g>
            <g transform="matrix(1,0,0,1,-5.36225,44.0269)">
                <path d="M1183.13,419.005C1183.13,419.005 1163.62,348.766 1107.56,348.823C1079,348.851 1061,370.074 1042.64,362.388C990.673,340.637 982.21,338.938 952.773,338.938C896.955,338.938 851.706,384.187 851.706,440.005C851.706,440.381 851.706,440.756 851.706,441.132C851.706,495.635 895.889,539.819 950.392,539.819C986.883,539.819 997.474,541.501 1041.57,518.179C1063.87,506.388 1080.93,525.349 1111.13,523.718C1170.83,520.496 1171.33,473.633 1182.78,470.846L1183.13,419.005Z" style="fill:rgb(148,73,32);"/>
            </g>
            <g transform="matrix(1,0,0,1.06725,-184.219,17.989)">
                <path d="M1689.95,441.901C1689.95,425.602 1675.85,412.389 1658.46,412.389C1566.64,412.389 1305.69,412.389 1305.69,412.389L1305.69,467.907C1305.69,467.907 1573.97,467.907 1662.2,467.907C1669.56,467.907 1676.62,465.167 1681.83,460.29C1687.03,455.413 1689.95,448.799 1689.95,441.903C1689.95,441.902 1689.95,441.901 1689.95,441.901Z" style="fill:rgb(148,73,32);"/>
            </g>
            <g transform="matrix(0.872593,0,0,1,187.58,-4.67171)">
                <ellipse cx="940.103" cy="491.077" rx="30.607" ry="26.033"/>
            </g>
            <g transform="matrix(0.494352,-0.0133529,0.0270011,0.999635,469.376,26.0277)">
                <path d="M911.422,449.466C911.422,447.697 908.517,446.26 904.938,446.26L891.97,446.26C888.391,446.26 885.486,447.697 885.486,449.466L885.486,498.921C885.486,500.691 888.391,502.127 891.97,502.127L904.938,502.127C908.517,502.127 911.422,500.691 911.422,498.921L911.422,449.466Z"/>
            </g>
            <g transform="matrix(21.1591,-0.050705,8.16376e-05,0.0340673,-17808,499.941)">
                <path d="M911.422,460.227C911.422,452.518 911.412,446.26 911.399,446.26L885.508,446.26C885.496,446.26 885.486,452.518 885.486,460.227L885.486,488.16C885.486,495.869 885.496,502.127 885.508,502.127L911.399,502.127C911.412,502.127 911.422,495.869 911.422,488.16L911.422,460.227Z" style="fill:white;"/>
            </g>
            <g transform="matrix(21.1591,-0.050705,8.16376e-05,0.0340673,-17807.8,505.315)">
                <path d="M911.422,460.227C911.422,452.518 911.412,446.26 911.399,446.26L885.508,446.26C885.496,446.26 885.486,452.518 885.486,460.227L885.486,488.16C885.486,495.869 885.496,502.127 885.508,502.127L911.399,502.127C911.412,502.127 911.422,495.869 911.422,488.16L911.422,460.227Z" style="fill:white;"/>
            </g>
            <g transform="matrix(21.1591,-0.050705,8.16376e-05,0.0340673,-17807.2,511.209)">
                <path d="M911.422,460.227C911.422,452.518 911.412,446.26 911.399,446.26L885.508,446.26C885.496,446.26 885.486,452.518 885.486,460.227L885.486,488.16C885.486,495.869 885.496,502.127 885.508,502.127L911.399,502.127C911.412,502.127 911.422,495.869 911.422,488.16L911.422,460.227Z" style="fill:white;"/>
            </g>
            <g transform="matrix(21.1591,-0.050705,8.16376e-05,0.0340673,-17807.4,517.431)">
                <path d="M911.422,460.227C911.422,452.518 911.412,446.26 911.399,446.26L885.508,446.26C885.496,446.26 885.486,452.518 885.486,460.227L885.486,488.16C885.486,495.869 885.496,502.127 885.508,502.127L911.399,502.127C911.412,502.127 911.422,495.869 911.422,488.16L911.422,460.227Z" style="fill:white;"/>
            </g>
            <g transform="matrix(21.1591,-0.050705,8.16376e-05,0.0340673,-17807.4,524.097)">
                <path d="M911.422,460.227C911.422,452.518 911.412,446.26 911.399,446.26L885.508,446.26C885.496,446.26 885.486,452.518 885.486,460.227L885.486,488.16C885.486,495.869 885.496,502.127 885.508,502.127L911.399,502.127C911.412,502.127 911.422,495.869 911.422,488.16L911.422,460.227Z" style="fill:white;"/>
            </g>
            <g transform="matrix(21.1591,-0.050705,8.16376e-05,0.0340673,-17807.4,531.765)">
                <path d="M911.422,460.227C911.422,452.518 911.412,446.26 911.399,446.26L885.508,446.26C885.496,446.26 885.486,452.518 885.486,460.227L885.486,488.16C885.486,495.869 885.496,502.127 885.508,502.127L911.399,502.127C911.412,502.127 911.422,495.869 911.422,488.16L911.422,460.227Z" style="fill:white;"/>
            </g>
        </g>
    </g>
</svg>
